<svg xmlns="http://www.w3.org/2000/svg" width="420" height="200" viewBox="0 0 420 200">
  <defs>
    <style>
      @import url('https://fonts.googleapis.com/css2?family=Inter:wght@400;600;700&amp;display=swap');
      
      .container {
        font-family: 'Inter', -apple-system, BlinkMacSystemFont, 'Segoe UI', 'Noto Sans', Helvetica, Arial, sans-serif;
      }
      
      .post-text {
        font-size: 13px;
        font-weight: 400;
        fill: #c9d1d9;
        line-height: 1.4;
        animation: fadeIn 0.8s ease-in 0.2s;
        animation-fill-mode: both;
      }
      
      .date {
        font-size: 11px;
        font-weight: 400;
        fill: #8b949e;
        animation: fadeIn 0.8s ease-in 0.4s;
        animation-fill-mode: both;
      }
      
      .label {
        font-size: 12px;
        font-weight: 600;
        fill: #0085ff;
        text-transform: uppercase;
        letter-spacing: 0.5px;
        animation: slideInLeft 0.6s ease-out;
      }
      
      .icon {
        fill: #0085ff;
        animation: pulse 2s ease-in-out infinite;
      }
      
      @keyframes fadeIn {
        from {
          opacity: 0;
          transform: translateY(10px);
        }
        to {
          opacity: 1;
          transform: translateY(0);
        }
      }
      
      @keyframes slideInLeft {
        from {
          opacity: 0;
          transform: translateX(-20px);
        }
        to {
          opacity: 1;
          transform: translateX(0);
        }
      }
      
      @keyframes pulse {
        0%, 100% {
          opacity: 1;
        }
        50% {
          opacity: 0.6;
        }
      }
    </style>
  </defs>
  
  <rect width="420" height="200" fill="#0d1117" rx="10" stroke="#1e1e2e" stroke-width="1"/>
  
  <a href="https://bsky.app/profile/jeroenvanwissen.nl/post/3mfutj4i4cc2j" target="_top">
    <g class="container">
      <!-- Bluesky Icon -->
      <g class="icon" transform="translate(25, 25)">
        <svg width="20" height="20" viewBox="0 0 568 501" fill="#0085ff">
          <path d="M123.121 33.6637C188.241 82.5526 258.281 181.681 284 234.873C309.719 181.681 379.759 82.5526 444.879 33.6637C491.866 -1.61183 568 -28.9064 568 57.9464C568 75.2916 558.055 203.659 552.222 224.501C531.947 296.954 458.067 315.434 392.347 304.249C507.222 323.8 536.444 388.56 473.333 453.32C353.473 576.312 301.061 422.461 287.631 383.039C285.169 375.812 284.655 372.431 284 372.431C283.345 372.431 282.831 375.812 280.369 383.039C266.939 422.461 214.527 576.312 94.6667 453.32C31.5556 388.56 60.7778 323.8 175.653 304.249C109.933 315.434 36.0535 296.954 15.7778 224.501C9.94525 203.659 0 75.2916 0 57.9464C0 -28.9064 76.1345 -1.61183 123.121 33.6637Z"/>
        </svg>
      </g>
      
      <!-- Label -->
      <text class="label" x="55" y="38">Latest Bluesky Post</text>
      
      <!-- Post Text (wrapped) -->
      <text class="post-text" x="25" y="70">Over the last couple of weeks I’ve been researching and</text>
      <text class="post-text" x="25" y="90">developing a fun little AI Agent Skill. I...</text>
      
      <!-- Date -->
      <text class="date" x="25" y="175">23h ago</text>
    </g>
  </a>
</svg>