<svg xmlns="http://www.w3.org/2000/svg" width="420" height="200" viewBox="0 0 420 200">
  <defs>
    <style>
      @keyframes fadeInUp {
        from { opacity: 0; transform: translateY(10px); }
        to { opacity: 1; transform: translateY(0); }
      }
    </style>
  </defs>

  <rect width="420" height="200" fill="#0d1117" rx="10" stroke="#1e1e2e" stroke-width="1" />

  <!-- Title -->
  <text x="25" y="32" 
        fill="#ff2bb9" 
        font-family="-apple-system, BlinkMacSystemFont, 'Segoe UI', Helvetica, Arial, sans-serif" 
        font-size="16" font-weight="600"
        style="animation: fadeInUp 0.5s ease-out both;">
    Commit Stats
  </text>

  
    <g style="animation: fadeInUp 0.5s ease-out 0.2s both; opacity: 0;">
      <!-- Icon -->
      <g transform="translate(25, 50)" fill="#ff2bb9" opacity="0.8">
        <svg width="16" height="16" viewBox="0 0 16 16">
          <path d="M1.5 3.25c0-.966.784-1.75 1.75-1.75h3.5c.966 0 1.75.784 1.75 1.75v3.5A1.75 1.75 0 016.75 8.5h-3.5A1.75 1.75 0 011.5 6.75v-3.5zM3.25 3a.25.25 0 00-.25.25v3.5c0 .138.112.25.25.25h3.5a.25.25 0 00.25-.25v-3.5a.25.25 0 00-.25-.25h-3.5z" />
        </svg>
      </g>

      <!-- Value -->
      <text x="49" y="63" 
            fill="#ffffff" 
            font-family="-apple-system, BlinkMacSystemFont, 'Segoe UI', Helvetica, Arial, sans-serif"
            font-size="22" font-weight="700">
        250
      </text>

      <!-- Label -->
      <text x="49" y="82" 
            fill="#b0b0b0" 
            font-family="-apple-system, BlinkMacSystemFont, 'Segoe UI', Helvetica, Arial, sans-serif"
            font-size="12">
        Total Commits
      </text>
    </g>

    <g style="animation: fadeInUp 0.5s ease-out 0.35s both; opacity: 0;">
      <!-- Icon -->
      <g transform="translate(210, 50)" fill="#ff2bb9" opacity="0.8">
        <svg width="16" height="16" viewBox="0 0 16 16">
          <path d="M4.75 0a.75.75 0 01.75.75V2h5V.75a.75.75 0 011.5 0V2h1.25c.966 0 1.75.784 1.75 1.75v10.5A1.75 1.75 0 0113.25 16H2.75A1.75 1.75 0 011 14.25V3.75C1 2.784 1.784 2 2.75 2H4V.75A.75.75 0 014.75 0z" />
        </svg>
      </g>

      <!-- Value -->
      <text x="234" y="63" 
            fill="#ffffff" 
            font-family="-apple-system, BlinkMacSystemFont, 'Segoe UI', Helvetica, Arial, sans-serif"
            font-size="22" font-weight="700">
        75
      </text>

      <!-- Label -->
      <text x="234" y="82" 
            fill="#b0b0b0" 
            font-family="-apple-system, BlinkMacSystemFont, 'Segoe UI', Helvetica, Arial, sans-serif"
            font-size="12">
        This Year
      </text>
    </g>

    <g style="animation: fadeInUp 0.5s ease-out 0.5s both; opacity: 0;">
      <!-- Icon -->
      <g transform="translate(25, 120)" fill="#ff2bb9" opacity="0.8">
        <svg width="16" height="16" viewBox="0 0 16 16">
          <path d="M4.75 0a.75.75 0 01.75.75V2h5V.75a.75.75 0 011.5 0V2h1.25c.966 0 1.75.784 1.75 1.75v10.5A1.75 1.75 0 0113.25 16H2.75A1.75 1.75 0 011 14.25V3.75C1 2.784 1.784 2 2.75 2H4V.75A.75.75 0 014.75 0zM2.5 7.5v6.75c0 .138.112.25.25.25h10.5a.25.25 0 00.25-.25V7.5h-11z" />
        </svg>
      </g>

      <!-- Value -->
      <text x="49" y="133" 
            fill="#ffffff" 
            font-family="-apple-system, BlinkMacSystemFont, 'Segoe UI', Helvetica, Arial, sans-serif"
            font-size="22" font-weight="700">
        25
      </text>

      <!-- Label -->
      <text x="49" y="152" 
            fill="#b0b0b0" 
            font-family="-apple-system, BlinkMacSystemFont, 'Segoe UI', Helvetica, Arial, sans-serif"
            font-size="12">
        This Month
      </text>
    </g>

    <g style="animation: fadeInUp 0.5s ease-out 0.65s both; opacity: 0;">
      <!-- Icon -->
      <g transform="translate(210, 120)" fill="#ff2bb9" opacity="0.8">
        <svg width="16" height="16" viewBox="0 0 16 16">
          <path d="M8 2a.75.75 0 01.75.75v4.5h4.5a.75.75 0 010 1.5h-4.5v4.5a.75.75 0 01-1.5 0v-4.5h-4.5a.75.75 0 010-1.5h4.5v-4.5A.75.75 0 018 2z" />
        </svg>
      </g>

      <!-- Value -->
      <text x="234" y="133" 
            fill="#ffffff" 
            font-family="-apple-system, BlinkMacSystemFont, 'Segoe UI', Helvetica, Arial, sans-serif"
            font-size="22" font-weight="700">
        5
      </text>

      <!-- Label -->
      <text x="234" y="152" 
            fill="#b0b0b0" 
            font-family="-apple-system, BlinkMacSystemFont, 'Segoe UI', Helvetica, Arial, sans-serif"
            font-size="12">
        This Week
      </text>
    </g>
</svg>