<svg xmlns="http://www.w3.org/2000/svg" width="420" height="200" viewBox="0 0 420 200">
  <defs>
    <style>
      @keyframes fadeInUp {
        from { opacity: 0; transform: translateY(10px); }
        to { opacity: 1; transform: translateY(0); }
      }
    </style>
  </defs>

  <rect width="420" height="200" fill="#0d1117" rx="10" stroke="#1e1e2e" stroke-width="1" />

  <!-- Title -->
  <text x="25" y="32" 
        fill="#ff2bb9" 
        font-family="-apple-system, BlinkMacSystemFont, 'Segoe UI', Helvetica, Arial, sans-serif" 
        font-size="16" font-weight="600"
        style="animation: fadeInUp 0.5s ease-out both;">
    GitHub Stats
  </text>

  
    <g style="animation: fadeInUp 0.5s ease-out 0.2s both; opacity: 0;">
      <!-- Icon -->
      <g transform="translate(25, 50)" fill="#ff2bb9" opacity="0.8">
        <svg width="16" height="16" viewBox="0 0 16 16">
          <path d="M2 2.5A2.5 2.5 0 014.5 0h8.75a.75.75 0 01.75.75v12.5a.75.75 0 01-.75.75h-2.5a.75.75 0 110-1.5h1.75v-2h-8a1 1 0 00-.714 1.7.75.75 0 01-1.072 1.05A2.495 2.495 0 012 11.5v-9z" />
        </svg>
      </g>

      <!-- Value -->
      <text x="49" y="63" 
            fill="#ffffff" 
            font-family="-apple-system, BlinkMacSystemFont, 'Segoe UI', Helvetica, Arial, sans-serif"
            font-size="22" font-weight="700">
        29
      </text>

      <!-- Label -->
      <text x="49" y="82" 
            fill="#b0b0b0" 
            font-family="-apple-system, BlinkMacSystemFont, 'Segoe UI', Helvetica, Arial, sans-serif"
            font-size="12">
        Public Repos
      </text>
    </g>

    <g style="animation: fadeInUp 0.5s ease-out 0.35s both; opacity: 0;">
      <!-- Icon -->
      <g transform="translate(210, 50)" fill="#ff2bb9" opacity="0.8">
        <svg width="16" height="16" viewBox="0 0 16 16">
          <path d="M8 .25a.75.75 0 01.673.418l1.882 3.815 4.21.612a.75.75 0 01.416 1.279l-3.046 2.97.719 4.192a.75.75 0 01-1.088.791L8 12.347l-3.766 1.98a.75.75 0 01-1.088-.79l.72-4.194L.818 6.374a.75.75 0 01.416-1.28l4.21-.611L7.327.668A.75.75 0 018 .25z" />
        </svg>
      </g>

      <!-- Value -->
      <text x="234" y="63" 
            fill="#ffffff" 
            font-family="-apple-system, BlinkMacSystemFont, 'Segoe UI', Helvetica, Arial, sans-serif"
            font-size="22" font-weight="700">
        5
      </text>

      <!-- Label -->
      <text x="234" y="82" 
            fill="#b0b0b0" 
            font-family="-apple-system, BlinkMacSystemFont, 'Segoe UI', Helvetica, Arial, sans-serif"
            font-size="12">
        Total Stars
      </text>
    </g>

    <g style="animation: fadeInUp 0.5s ease-out 0.5s both; opacity: 0;">
      <!-- Icon -->
      <g transform="translate(25, 120)" fill="#ff2bb9" opacity="0.8">
        <svg width="16" height="16" viewBox="0 0 16 16">
          <path d="M5.5 3.5a2 2 0 100 4 2 2 0 000-4zM2 5.5a3.5 3.5 0 115.898 2.549 5.507 5.507 0 013.034 4.084.75.75 0 11-1.482.235 4.001 4.001 0 00-7.9 0 .75.75 0 01-1.482-.236A5.507 5.507 0 013.102 8.05 3.49 3.49 0 012 5.5zM11 4a.75.75 0 100 1.5 1.5 1.5 0 01.666 2.844.75.75 0 00-.416.672v.352a.75.75 0 00.574.73c1.2.289 2.162 1.2 2.522 2.372a.75.75 0 101.434-.44 5.01 5.01 0 00-2.56-3.012A3 3 0 0011 4z" />
        </svg>
      </g>

      <!-- Value -->
      <text x="49" y="133" 
            fill="#ffffff" 
            font-family="-apple-system, BlinkMacSystemFont, 'Segoe UI', Helvetica, Arial, sans-serif"
            font-size="22" font-weight="700">
        96
      </text>

      <!-- Label -->
      <text x="49" y="152" 
            fill="#b0b0b0" 
            font-family="-apple-system, BlinkMacSystemFont, 'Segoe UI', Helvetica, Arial, sans-serif"
            font-size="12">
        Followers
      </text>
    </g>

    <g style="animation: fadeInUp 0.5s ease-out 0.65s both; opacity: 0;">
      <!-- Icon -->
      <g transform="translate(210, 120)" fill="#ff2bb9" opacity="0.8">
        <svg width="16" height="16" viewBox="0 0 16 16">
          <path d="M4.75 0a.75.75 0 01.75.75V2h5V.75a.75.75 0 011.5 0V2h1.25c.966 0 1.75.784 1.75 1.75v10.5A1.75 1.75 0 0113.25 16H2.75A1.75 1.75 0 011 14.25V3.75C1 2.784 1.784 2 2.75 2H4V.75A.75.75 0 014.75 0z" />
        </svg>
      </g>

      <!-- Value -->
      <text x="234" y="133" 
            fill="#ffffff" 
            font-family="-apple-system, BlinkMacSystemFont, 'Segoe UI', Helvetica, Arial, sans-serif"
            font-size="22" font-weight="700">
        10
      </text>

      <!-- Label -->
      <text x="234" y="152" 
            fill="#b0b0b0" 
            font-family="-apple-system, BlinkMacSystemFont, 'Segoe UI', Helvetica, Arial, sans-serif"
            font-size="12">
        Years on GitHub
      </text>
    </g>
</svg>